<?xml version="1.0" encoding="utf-8"?>
<!-- Generator: Adobe Illustrator 16.0.4, SVG Export Plug-In . SVG Version: 6.00 Build 0)  -->
<!DOCTYPE svg PUBLIC "-//W3C//DTD SVG 1.1//EN" "http://www.w3.org/Graphics/SVG/1.1/DTD/svg11.dtd">
<svg version="1.1" id="Calque_1" xmlns="http://www.w3.org/2000/svg" xmlns:xlink="http://www.w3.org/1999/xlink" x="0px" y="0px"
	 width="504px" height="504px" viewBox="30.24 158 504 504" enable-background="new 30.24 158 504 504" xml:space="preserve">
<g>
	<path d="M282.24,158c-139.44,0-252,112.56-252,252c0,139.44,112.56,252,252,252c139.439,0,252-112.56,252-252
		C534.24,270.56,421.12,158,282.24,158z M447.44,561.2l-11.761-32.48C423.36,505.2,401.52,487.28,376.32,480l-39.2-11.76
		c-11.76-3.36-17.92-15.681-14-27.44c0.56-2.24,2.24-4.479,3.92-6.16l25.2-39.2c10.64-16.24,14.56-35.84,11.2-54.88l-2.801-15.68
		c-3.359-20.16-14.56-38.08-31.359-50.4c-28-20.16-65.52-19.6-92.96,1.12l0,0c-14.56,11.2-24.64,26.88-28.56,44.8l-4.48,16.8
		c-4.48,20.16-1.12,41.44,10.08,59.36l23.52,37.52c1.68,1.68,2.8,3.92,3.92,6.16c3.92,11.2-2.24,23.52-14,27.439l-39.2,11.761
		c-25.76,7.84-47.04,25.199-59.36,48.72l-11.76,33.04c-36.4-39.76-58.8-92.96-58.8-151.2c0-123.76,100.24-224,224-224
		c123.761,0,224,100.24,224,224C506.24,468.24,483.84,520.88,447.44,561.2z"/>
</g>
</svg>
