<?xml version="1.0" encoding="utf-8"?>
<!-- Generator: Adobe Illustrator 16.0.4, SVG Export Plug-In . SVG Version: 6.00 Build 0)  -->
<!DOCTYPE svg PUBLIC "-//W3C//DTD SVG 1.1//EN" "http://www.w3.org/Graphics/SVG/1.1/DTD/svg11.dtd">
<svg version="1.1" id="Calque_1" xmlns="http://www.w3.org/2000/svg" xmlns:xlink="http://www.w3.org/1999/xlink" x="0px" y="0px"
	 width="192px" height="105px" viewBox="0 0 192 105" enable-background="new 0 0 192 105" xml:space="preserve">
<g>
	<g>
		<path fill-rule="evenodd" clip-rule="evenodd" fill="#073748" d="M48.424,102.94c-0.258-0.612-0.446-1.267-0.79-1.826
			c-0.568-0.92-1.149-1.867-1.896-2.634c-0.516-0.53-1.285-0.958-2.01-1.118c-3.007-0.657-5.256-3.55-5.701-6.456
			c-0.227-1.481,0.029-1.732,1.532-1.567c2.142,0.235,4.283,0.486,6.426,0.705c0.528,0.054,1.068,0.019,1.601,0.007
			c0.66-0.016,0.727,0.074,0.521,0.734c-0.027,0.085-0.042,0.176-0.088,0.365c1.116-0.722,1.694-1.62,1.572-3.015
			c0.272,0.147,0.472,0.204,0.605,0.333c0.814,0.785,1.671,0.892,2.671,0.361c0.238-0.128,0.538-0.146,0.814-0.19
			c0.251-0.04,0.509-0.046,0.882-0.077c-0.145-0.332-0.226-0.557-0.338-0.767c-0.981-1.84-1.932-3.7-2.96-5.512
			c-1.404-2.469-2.849-3.155-5.652-2.7c-2.102,0.341-4.057,1.048-5.662,2.541c-1.665,1.547-2.624,3.432-2.89,5.707
			c-0.237,2.025-0.427,4.032-0.101,6.069c0.32,1.998,1.077,3.738,2.56,5.139c0.653,0.616,1.301,1.242,1.911,1.9
			c0.563,0.61,1.002,1.305,1.093,2.168c0.053,0.503-0.087,0.81-0.633,0.961c-2.012,0.561-4.036,1.062-6.138,0.905
			c-0.783-0.059-1.585-0.261-2.313-0.559c-0.98-0.403-1.569-1.219-1.689-2.292c-0.508-4.479-0.559-8.953,0.213-13.41
			c0.409-2.353,1.046-4.643,2.284-6.706c2.181-3.636,5.41-5.578,9.637-5.372c3.541,0.172,6.246,1.916,7.838,5.214
			c1.14,2.359,2.235,4.748,3.489,7.047c1.442,2.649,3.378,4.91,5.836,6.692c0.785,0.57,0.884,1.172,0.362,1.917
			c-0.431,0.613-0.708,0.64-1.368,0.263c-2.934-1.675-5.88-3.323-8.814-4.999c-1.706-0.975-3.511-1.095-5.371-0.65
			c-0.774,0.185-1.539,0.45-2.275,0.757c-0.431,0.177-0.838,0.463-1.185,0.782c-0.518,0.473-0.489,0.962,0.052,1.418
			c0.467,0.393,0.999,0.711,1.461,1.108c1.201,1.031,2.441,2.029,3.542,3.163c0.637,0.655,1.092,1.516,1.519,2.342
			C49.372,102.456,49.284,102.542,48.424,102.94z M60.64,96.478c0.09-0.095,0.182-0.194,0.272-0.29
			c-0.161-0.055-0.343-0.079-0.484-0.169c-2.286-1.492-3.959-3.554-5.349-5.872c-0.107-0.179-0.206-0.37-0.343-0.527
			c-0.43-0.501-1.277-0.566-1.882-0.163c-0.449,0.301-0.539,0.823-0.116,1.478c0.39,0.604,0.838,1.193,1.357,1.687
			C55.98,94.405,58.274,95.509,60.64,96.478z"/>
		<path fill-rule="evenodd" clip-rule="evenodd" fill="#073748" d="M42.286,81.855c0.317-0.183,0.45-0.308,0.605-0.341
			c1.593-0.352,3.183-0.722,4.788-1.018c0.951-0.174,1.748,0.238,2.256,1.04c0.568,0.898,1.081,1.84,1.539,2.799
			c0.379,0.791,0.653,1.631,0.956,2.456c0.078,0.213,0.089,0.45,0.138,0.72c-1.679-1.14-3.202-2.345-4.88-3.269
			C46.023,83.323,44.205,82.688,42.286,81.855z M47.803,81.838c-0.041,0.022-0.084,0.043-0.124,0.065
			c0.179,0.148,0.336,0.357,0.543,0.429c0.18,0.059,0.411-0.037,0.621-0.064c-0.011-0.04-0.023-0.075-0.034-0.114
			C48.473,82.048,48.138,81.944,47.803,81.838z"/>
		<path fill-rule="evenodd" clip-rule="evenodd" fill="#FFFFFF" d="M60.64,96.478c-2.366-0.969-4.659-2.072-6.544-3.857
			c-0.519-0.494-0.967-1.083-1.357-1.687c-0.423-0.654-0.333-1.176,0.116-1.478c0.605-0.404,1.452-0.338,1.882,0.163
			c0.137,0.157,0.235,0.348,0.343,0.527c1.39,2.318,3.062,4.38,5.349,5.872c0.141,0.09,0.323,0.115,0.484,0.169
			C60.821,96.284,60.729,96.382,60.64,96.478z"/>
		<path fill-rule="evenodd" clip-rule="evenodd" fill="#FFFFFF" d="M47.803,81.838c0.335,0.105,0.67,0.21,1.006,0.315
			c0.011,0.039,0.023,0.075,0.034,0.114c-0.209,0.027-0.441,0.124-0.621,0.064c-0.207-0.072-0.365-0.281-0.543-0.429
			C47.719,81.881,47.762,81.86,47.803,81.838z"/>
	</g>
	<g>
		<path fill-rule="evenodd" clip-rule="evenodd" fill="#073748" d="M73.85,101.686c0.426-0.826,0.883-1.687,1.52-2.342
			c1.101-1.134,2.342-2.132,3.542-3.163c0.462-0.397,0.995-0.716,1.461-1.108c0.542-0.456,0.57-0.945,0.052-1.418
			c-0.346-0.318-0.754-0.604-1.185-0.782c-0.737-0.307-1.5-0.572-2.277-0.757c-1.858-0.445-3.664-0.325-5.368,0.65
			c-2.934,1.676-5.883,3.324-8.815,4.999c-0.66,0.377-0.938,0.35-1.366-0.263c-0.523-0.745-0.424-1.347,0.361-1.917
			c2.458-1.782,4.394-4.043,5.836-6.692c1.253-2.299,2.349-4.688,3.488-7.047c1.593-3.298,4.299-5.042,7.839-5.214
			c4.226-0.206,7.456,1.736,9.635,5.372c1.237,2.063,1.877,4.353,2.286,6.706c0.773,4.457,0.722,8.931,0.215,13.41
			c-0.123,1.072-0.713,1.889-1.692,2.292c-0.727,0.297-1.529,0.5-2.312,0.559c-2.102,0.157-4.126-0.344-6.137-0.905
			c-0.548-0.151-0.687-0.458-0.636-0.961c0.093-0.863,0.531-1.558,1.095-2.168c0.608-0.658,1.257-1.284,1.91-1.9
			c1.483-1.401,2.239-3.141,2.561-5.139c0.326-2.037,0.135-4.044-0.102-6.069c-0.266-2.275-1.224-4.159-2.891-5.707
			c-1.604-1.493-3.56-2.2-5.661-2.541c-2.803-0.455-4.25,0.231-5.651,2.7c-1.031,1.812-1.98,3.672-2.961,5.512
			c-0.111,0.21-0.193,0.436-0.337,0.767c0.373,0.031,0.629,0.037,0.882,0.077c0.275,0.044,0.576,0.062,0.815,0.19
			c0.999,0.531,1.855,0.424,2.671-0.361c0.133-0.128,0.332-0.186,0.604-0.333c-0.123,1.396,0.457,2.293,1.571,3.015
			c-0.044-0.189-0.06-0.279-0.088-0.365c-0.205-0.66-0.137-0.75,0.521-0.734c0.535,0.012,1.073,0.047,1.602-0.007
			c2.145-0.218,4.284-0.469,6.425-0.705c1.504-0.165,1.76,0.086,1.533,1.567c-0.445,2.905-2.695,5.798-5.7,6.456
			c-0.725,0.16-1.495,0.588-2.012,1.118c-0.748,0.767-1.326,1.714-1.896,2.634c-0.344,0.559-0.532,1.214-0.791,1.826
			C73.54,102.542,73.453,102.456,73.85,101.686z M68.729,92.621c0.519-0.494,0.968-1.083,1.356-1.687
			c0.424-0.654,0.333-1.176-0.117-1.478c-0.604-0.404-1.451-0.338-1.882,0.163c-0.136,0.157-0.234,0.348-0.342,0.527
			c-1.391,2.318-3.062,4.38-5.351,5.872c-0.138,0.09-0.32,0.115-0.481,0.169c0.089,0.096,0.181,0.195,0.271,0.29
			C64.55,95.509,66.843,94.405,68.729,92.621z"/>
		<path fill-rule="evenodd" clip-rule="evenodd" fill="#073748" d="M75.136,84.242c-1.676,0.924-3.2,2.128-4.879,3.269
			c0.049-0.27,0.06-0.507,0.137-0.72c0.303-0.825,0.578-1.665,0.957-2.456c0.459-0.959,0.97-1.9,1.54-2.799
			c0.507-0.802,1.304-1.213,2.255-1.04c1.606,0.296,3.195,0.666,4.788,1.018c0.153,0.034,0.287,0.159,0.604,0.341
			C78.62,82.688,76.8,83.323,75.136,84.242z M74.016,82.154c-0.012,0.039-0.022,0.075-0.035,0.114
			c0.21,0.027,0.443,0.124,0.622,0.064c0.207-0.072,0.365-0.281,0.544-0.429c-0.042-0.022-0.085-0.043-0.125-0.065
			C74.687,81.944,74.351,82.048,74.016,82.154z"/>
		<path fill-rule="evenodd" clip-rule="evenodd" fill="#FFFFFF" d="M62.184,96.478c2.366-0.969,4.659-2.072,6.545-3.857
			c0.519-0.494,0.968-1.083,1.356-1.687c0.424-0.654,0.333-1.176-0.117-1.478c-0.604-0.404-1.451-0.338-1.882,0.163
			c-0.136,0.157-0.234,0.348-0.342,0.527c-1.391,2.318-3.062,4.38-5.351,5.872c-0.138,0.09-0.32,0.115-0.481,0.169
			C62.002,96.284,62.094,96.382,62.184,96.478z"/>
		<path fill-rule="evenodd" clip-rule="evenodd" fill="#FFFFFF" d="M75.022,81.838c-0.336,0.105-0.672,0.21-1.006,0.315
			c-0.012,0.039-0.022,0.075-0.035,0.114c0.21,0.027,0.443,0.124,0.622,0.064c0.207-0.072,0.365-0.281,0.544-0.429
			C75.105,81.881,75.062,81.86,75.022,81.838z"/>
	</g>
	<g>
		<path fill="#073748" d="M104.587,100.963v2.954c-0.837,0.549-2.114,0.824-3.832,0.824c-2.008,0-3.572-0.584-4.687-1.755
			c-1.119-1.17-1.675-2.675-1.675-4.516c0-1.953,0.542-3.483,1.628-4.589c1.082-1.105,2.418-1.659,4.009-1.659
			c1.64,0,2.934,0.481,3.878,1.441c0.949,0.961,1.423,2.394,1.423,4.298c0,0.371-0.064,1.01-0.193,1.913h-7.18
			c0.24,0.678,0.658,1.203,1.253,1.573c0.593,0.374,1.308,0.558,2.143,0.558C102.594,102.004,103.67,101.658,104.587,100.963z
			 M102.056,97.355v-0.29c-0.111-1.438-0.738-2.156-1.88-2.156c-0.562,0-1.06,0.207-1.493,0.618
			c-0.434,0.411-0.723,1.021-0.867,1.828H102.056z"/>
		<path fill="#073748" d="M108.272,90.236c-0.402-0.403-0.603-0.886-0.603-1.451c0-0.566,0.201-1.05,0.603-1.454
			c0.402-0.404,0.882-0.605,1.447-0.605c0.562,0,1.044,0.201,1.444,0.605c0.402,0.404,0.603,0.888,0.603,1.454
			c0,0.564-0.201,1.048-0.603,1.451c-0.4,0.404-0.882,0.606-1.444,0.606C109.155,90.842,108.675,90.64,108.272,90.236z
			 M107.958,104.618V92.342h3.52v12.276H107.958z"/>
		<path fill="#073748" d="M114.609,104.618V87.501h3.52v17.117H114.609z"/>
		<path fill="#073748" d="M124.658,87.501v6.924c0.626-1.469,1.849-2.204,3.662-2.204c1.19,0,2.157,0.38,2.904,1.138
			c0.748,0.76,1.121,1.905,1.121,3.439v7.82h-3.518v-7.263c0-0.71-0.178-1.267-0.531-1.67c-0.354-0.404-0.81-0.606-1.375-0.606
			c-0.24,0-0.468,0.037-0.685,0.109c-0.217,0.075-0.455,0.203-0.712,0.388c-0.256,0.187-0.466,0.501-0.625,0.944
			c-0.162,0.445-0.242,0.981-0.242,1.611v6.488h-3.518V87.501H124.658z"/>
		<path fill="#073748" d="M135.454,96.12v-3.171c0.962-0.55,2.353-0.824,4.167-0.824c1.735,0,3.028,0.375,3.881,1.126
			c0.851,0.75,1.276,1.916,1.276,3.497v7.869h-3.447v-1.5c-0.513,1.05-1.524,1.574-3.035,1.574c-1.189,0-2.116-0.338-2.784-1.017
			c-0.666-0.678-1-1.525-1-2.541c0-1.179,0.43-2.097,1.289-2.749c0.861-0.654,2.135-0.981,3.82-0.981h1.542v-0.848
			c0-1.033-0.682-1.549-2.048-1.549C137.799,95.006,136.577,95.378,135.454,96.12z M141.164,99.583h-1.132
			c-0.595,0-1.052,0.129-1.375,0.388c-0.322,0.258-0.48,0.589-0.48,0.992c0,0.823,0.472,1.234,1.421,1.234
			c0.498,0,0.884-0.152,1.156-0.459c0.273-0.307,0.41-0.727,0.41-1.258V99.583z"/>
		<path fill="#073748" d="M151.066,92.342v2.083c0.307-0.679,0.777-1.215,1.411-1.611c0.634-0.395,1.394-0.593,2.278-0.593
			c1.253,0,2.233,0.377,2.939,1.126c0.707,0.751,1.06,1.853,1.06,3.305v7.965h-3.518v-7.312c0-0.726-0.17-1.279-0.507-1.658
			c-0.336-0.379-0.812-0.57-1.421-0.57c-0.642,0-1.175,0.254-1.603,0.764c-0.425,0.508-0.64,1.271-0.64,2.288v6.488h-3.518V92.342
			H151.066z"/>
	</g>
	<g>
		<path fill="#073748" d="M0.058,102.208L0.001,98.89c-0.024-1.462,0.333-2.622,1.07-3.478c0.739-0.856,1.704-1.294,2.897-1.314
			c1.121-0.019,2.057,0.383,2.811,1.208c0.753,0.825,1.142,1.925,1.166,3.299l0.033,1.949l4.626-0.079l0.024,1.518L0.058,102.208z
			 M6.69,100.575l-0.033-1.949c-0.016-0.949-0.274-1.688-0.774-2.218c-0.5-0.528-1.13-0.786-1.889-0.773
			c-0.845,0.015-1.513,0.302-2,0.859c-0.488,0.558-0.723,1.342-0.706,2.356l0.03,1.817L6.69,100.575z"/>
		<path fill="#073748" d="M3.347,89.987l1.654,0.125c-1.127-0.586-1.646-1.491-1.554-2.712c0.017-0.224,0.043-0.397,0.077-0.521
			l1.45,0.111c-0.106,0.255-0.169,0.519-0.19,0.794c-0.05,0.661,0.213,1.231,0.788,1.714c0.575,0.481,1.259,0.752,2.054,0.814
			l5.152,0.391l-0.111,1.478l-9.43-0.736L3.347,89.987z"/>
		<path fill="#073748" d="M13.939,82.568c-0.231,1.342-0.865,2.326-1.9,2.951c-1.036,0.625-2.24,0.817-3.612,0.578
			c-1.384-0.241-2.47-0.846-3.257-1.813c-0.786-0.967-1.067-2.098-0.844-3.391c0.244-1.417,0.886-2.43,1.926-3.042
			c1.04-0.611,2.258-0.795,3.655-0.552c1.386,0.242,2.463,0.836,3.235,1.781C13.912,80.026,14.177,81.188,13.939,82.568z
			 M5.613,81.117c-0.152,0.888,0.07,1.642,0.67,2.267c0.599,0.625,1.395,1.023,2.387,1.196c0.968,0.168,1.837,0.054,2.606-0.345
			c0.769-0.398,1.228-1.028,1.377-1.891c0.161-0.935-0.048-1.714-0.629-2.334c-0.58-0.622-1.368-1.018-2.359-1.191
			c-1.03-0.179-1.92-0.087-2.67,0.276C6.243,79.458,5.783,80.132,5.613,81.117z"/>
		<path fill="#073748" d="M4.209,66.388l0.429-1.417l12.622,3.846l-0.429,1.418l-1.338-0.408c0.793,0.946,1.005,2.031,0.637,3.25
			c-0.364,1.208-1.097,2.019-2.196,2.436c-1.101,0.416-2.287,0.429-3.562,0.041c-1.416-0.431-2.452-1.145-3.106-2.141
			c-0.655-0.996-0.809-2.068-0.461-3.216c0.357-1.184,1.141-1.951,2.35-2.301L4.209,66.388z M14.883,72.559
			c0.224-0.742,0.141-1.456-0.25-2.143c-0.392-0.687-1.187-1.213-2.389-1.581c-1.143-0.348-2.062-0.335-2.76,0.042
			c-0.699,0.374-1.145,0.885-1.34,1.531c-0.227,0.754-0.115,1.471,0.336,2.149s1.237,1.189,2.355,1.531
			c0.976,0.296,1.84,0.299,2.591,0.005C14.177,73.8,14.663,73.289,14.883,72.559z"/>
		<path fill="#073748" d="M11.806,57.368l0.593-1.355l8.656,3.831l-0.593,1.355l-1.503-0.664c0.87,0.93,1.005,2.077,0.409,3.438
			c-0.375,0.858-0.926,1.423-1.65,1.697c-0.725,0.273-1.514,0.221-2.368-0.157l-5.958-2.637l0.594-1.355l5.618,2.485
			c0.625,0.278,1.174,0.33,1.645,0.155c0.469-0.174,0.825-0.536,1.065-1.085c0.315-0.721,0.318-1.407,0.005-2.056
			c-0.313-0.651-0.897-1.165-1.75-1.543L11.806,57.368z"/>
		<path fill="#073748" d="M18.599,54.523c0.889,0.503,1.779,0.66,2.671,0.47c0.892-0.189,1.618-0.77,2.179-1.743
			c0.361-0.628,0.52-1.316,0.476-2.062l1.211,0.705c0.013,0.7-0.198,1.428-0.634,2.186c-0.747,1.298-1.752,2.089-3.015,2.374
			c-1.263,0.283-2.486,0.082-3.67-0.608c-1.163-0.675-1.944-1.639-2.345-2.89c-0.401-1.25-0.222-2.536,0.54-3.855
			c0.403-0.703,0.917-1.243,1.535-1.62l1.211,0.704c-0.621,0.305-1.125,0.791-1.51,1.461c-0.536,0.932-0.666,1.849-0.389,2.753
			C17.136,53.302,17.717,54.009,18.599,54.523z"/>
		<path fill="#073748" d="M20.98,43.948l4.524,3.214c0.824,0.583,1.508,0.487,2.053-0.288c0.28-0.398,0.411-0.833,0.392-1.306
			l1.144,0.812c-0.055,0.467-0.229,0.909-0.523,1.328c-1.077,1.53-2.392,1.744-3.946,0.642l-4.495-3.192l-0.873,1.241l-0.975-0.693
			l0.872-1.24l-1.918-1.363l0.85-1.209l1.92,1.362l1.507-2.143l0.975,0.692L20.98,43.948z"/>
		<path fill="#073748" d="M33.497,38.542l1.046,0.905c-0.187,0.812-0.626,1.62-1.315,2.426c-0.934,1.087-2.02,1.679-3.256,1.771
			c-1.236,0.092-2.401-0.334-3.494-1.281c-1.14-0.986-1.783-2.064-1.933-3.231c-0.147-1.168,0.181-2.22,0.984-3.158
			c0.772-0.898,1.672-1.364,2.702-1.398c1.029-0.033,2.072,0.409,3.127,1.322c0.301,0.261,0.558,0.524,0.773,0.793l-4.213,4.914
			c0.78,0.525,1.552,0.726,2.319,0.597c0.766-0.128,1.467-0.56,2.1-1.3C33.026,40.097,33.414,39.31,33.497,38.542z M30.297,36.933
			l-0.283-0.244c-0.594-0.513-1.206-0.764-1.835-0.748s-1.187,0.309-1.675,0.876c-0.463,0.54-0.663,1.166-0.602,1.879
			c0.062,0.713,0.422,1.412,1.081,2.099L30.297,36.933z"/>
		<path fill="#073748" d="M34.522,26.975l1.083-1.005l6.416,6.983l-1.083,1.005l-1.113-1.212c0.428,1.203,0.098,2.307-0.99,3.315
			c-0.686,0.636-1.415,0.933-2.188,0.895c-0.773-0.04-1.476-0.405-2.109-1.093l-4.417-4.808l1.083-1.004l4.163,4.532
			c0.465,0.504,0.948,0.771,1.448,0.8c0.5,0.029,0.97-0.16,1.408-0.566c0.576-0.534,0.849-1.161,0.821-1.884
			c-0.028-0.722-0.358-1.428-0.992-2.116L34.522,26.975z"/>
		<path fill="#073748" d="M39.373,23l1.007,1.326c-0.314-1.236,0.013-2.228,0.983-2.971c0.177-0.137,0.324-0.232,0.437-0.288
			l0.884,1.163c-0.261,0.087-0.5,0.218-0.717,0.384c-0.523,0.402-0.774,0.979-0.75,1.731c0.023,0.753,0.277,1.446,0.761,2.082
			l3.136,4.126l-1.171,0.899l-5.726-7.564L39.373,23z"/>
		<path fill="#073748" d="M51.457,10.818l1.292-0.714l6.361,11.609l-1.29,0.714l-0.675-1.231c-0.09,1.234-0.691,2.159-1.802,2.773
			c-1.101,0.607-2.189,0.677-3.266,0.202c-1.077-0.475-1.936-1.298-2.578-2.47c-0.714-1.302-0.959-2.54-0.736-3.712
			c0.225-1.172,0.859-2.047,1.905-2.626c1.079-0.597,2.173-0.595,3.281,0.004L51.457,10.818z M54.808,22.724
			c0.675-0.374,1.112-0.942,1.311-1.71c0.196-0.765-0.007-1.701-0.613-2.807c-0.576-1.051-1.245-1.686-2.004-1.907
			c-0.761-0.223-1.435-0.17-2.023,0.156c-0.686,0.38-1.104,0.971-1.253,1.773c-0.149,0.804,0.059,1.72,0.623,2.749
			c0.491,0.898,1.109,1.505,1.85,1.823C53.44,23.117,54.144,23.092,54.808,22.724z"/>
		<path fill="#073748" d="M66.957,16.372l0.517,1.285c-0.536,0.636-1.294,1.154-2.272,1.553c-1.325,0.539-2.56,0.568-3.701,0.081
			c-1.142-0.486-1.984-1.4-2.526-2.744c-0.565-1.401-0.647-2.655-0.249-3.762c0.4-1.107,1.17-1.893,2.311-2.357
			c1.095-0.446,2.107-0.447,3.038-0.002c0.93,0.443,1.657,1.312,2.181,2.61c0.148,0.37,0.258,0.724,0.326,1.061L60.6,16.532
			c0.455,0.827,1.051,1.359,1.791,1.597c0.741,0.238,1.56,0.172,2.459-0.193C65.828,17.538,66.532,17.016,66.957,16.372z
			 M64.841,13.47L64.7,13.123c-0.293-0.73-0.724-1.231-1.292-1.505c-0.566-0.275-1.196-0.272-1.888,0.01
			c-0.657,0.268-1.12,0.733-1.39,1.395c-0.27,0.663-0.268,1.451,0.007,2.364L64.841,13.47z"/>
		<path fill="#073748" d="M75.561,2.135l0.318,1.311c-0.314-0.025-0.604-0.005-0.87,0.059c-0.388,0.094-0.673,0.307-0.856,0.634
			c-0.182,0.327-0.205,0.77-0.07,1.329l0.203,0.838l2.032-0.497l0.282,1.166l-2.029,0.498l1.956,8.068l-1.431,0.351l-1.958-8.068
			l-1.577,0.386l-0.283-1.165l1.576-0.388L72.648,5.8c-0.218-0.898-0.153-1.666,0.198-2.306c0.351-0.638,0.948-1.062,1.795-1.27
			C74.932,2.154,75.237,2.125,75.561,2.135z"/>
		<path fill="#073748" d="M83.808,14.326c-1.341,0.193-2.469-0.108-3.379-0.905c-0.914-0.797-1.466-1.886-1.665-3.273
			c-0.199-1.398,0.038-2.622,0.711-3.672c0.673-1.049,1.655-1.668,2.949-1.854c1.415-0.204,2.575,0.097,3.475,0.901
			c0.9,0.806,1.448,1.913,1.651,3.322c0.199,1.398-0.03,2.612-0.687,3.642C86.205,13.513,85.188,14.126,83.808,14.326z M82.61,5.919
			c-0.886,0.128-1.535,0.577-1.938,1.341c-0.406,0.766-0.539,1.649-0.396,2.651c0.141,0.978,0.518,1.771,1.132,2.384
			c0.616,0.611,1.354,0.856,2.215,0.731c0.937-0.134,1.609-0.575,2.017-1.322c0.41-0.747,0.542-1.622,0.398-2.623
			c-0.148-1.04-0.51-1.862-1.087-2.466C84.376,6.01,83.593,5.777,82.61,5.919z"/>
		<path fill="#073748" d="M89.578,1.698c-0.189-0.171-0.292-0.394-0.308-0.668c-0.016-0.274,0.061-0.511,0.23-0.708
			c0.168-0.197,0.391-0.304,0.664-0.32c0.273-0.015,0.509,0.065,0.705,0.242c0.197,0.176,0.302,0.403,0.318,0.677
			c0.016,0.274-0.064,0.508-0.24,0.7s-0.4,0.295-0.673,0.31C90,1.945,89.768,1.869,89.578,1.698z M90.197,13.48l-0.535-9.488
			l1.472-0.083l0.535,9.489L90.197,13.48z"/>
		<path fill="#073748" d="M101.164,11.535l-0.033,1.385c-0.744,0.37-1.644,0.542-2.7,0.517c-1.429-0.034-2.571-0.5-3.428-1.402
			c-0.857-0.902-1.269-2.078-1.232-3.528c0.033-1.51,0.453-2.695,1.257-3.551c0.804-0.857,1.821-1.27,3.051-1.241
			c1.181,0.029,2.112,0.432,2.792,1.211c0.677,0.777,1,1.868,0.968,3.267c-0.01,0.4-0.049,0.768-0.119,1.103l-6.453-0.151
			c0.09,0.938,0.425,1.666,1.011,2.18c0.586,0.514,1.365,0.782,2.333,0.805C99.668,12.154,100.517,11.956,101.164,11.535z
			 M100.367,8.026l0.008-0.374c0.02-0.788-0.178-1.419-0.588-1.899c-0.412-0.478-0.991-0.726-1.737-0.744
			c-0.71-0.017-1.317,0.225-1.827,0.725c-0.51,0.501-0.818,1.224-0.929,2.171L100.367,8.026z"/>
		<path fill="#073748" d="M115.786,5.957l1.445,0.282l-1.651,8.575c-0.273,1.423-0.873,2.418-1.79,2.984
			c-0.921,0.566-1.997,0.729-3.23,0.488c-1.125-0.218-2.046-0.595-2.766-1.131l0.281-1.452c0.693,0.606,1.565,1.01,2.615,1.215
			c0.89,0.172,1.638,0.071,2.245-0.309c0.605-0.378,1.005-1.075,1.202-2.095l0.201-1.049c-0.814,0.937-1.825,1.287-3.035,1.052
			c-1.062-0.207-1.89-0.776-2.491-1.707c-0.602-0.932-0.765-2.097-0.496-3.496c0.268-1.387,0.833-2.459,1.704-3.219
			c0.869-0.761,1.864-1.032,2.987-0.813c1.271,0.247,2.098,0.988,2.481,2.22L115.786,5.957z M111.716,13.26
			c0.671,0.133,1.318-0.014,1.937-0.434c0.619-0.42,1.029-1.146,1.228-2.177c0.23-1.189,0.148-2.122-0.24-2.796
			c-0.391-0.675-0.916-1.076-1.573-1.205c-0.794-0.153-1.484,0.04-2.069,0.581c-0.585,0.543-0.978,1.322-1.173,2.34
			c-0.201,1.043-0.097,1.888,0.311,2.534C110.543,12.75,111.07,13.134,111.716,13.26z"/>
		<path fill="#073748" d="M121.743,7.521l-0.47,1.6c0.806-0.985,1.796-1.305,2.965-0.958c0.216,0.064,0.376,0.126,0.49,0.185
			l-0.41,1.402c-0.226-0.158-0.472-0.277-0.734-0.354c-0.632-0.187-1.243-0.048-1.833,0.415c-0.589,0.464-0.997,1.08-1.222,1.847
			l-1.46,4.981l-1.414-0.419l2.69-9.111L121.743,7.521z"/>
		<path fill="#073748" d="M126.159,10.993l0.539-1.377c0.82-0.146,1.769-0.006,2.844,0.421c2.21,0.875,2.874,2.441,1.987,4.696
			l-2.196,5.598l-1.355-0.536l0.41-1.045c-0.748,0.576-1.716,0.628-2.909,0.156c-0.822-0.326-1.388-0.833-1.698-1.521
			c-0.312-0.687-0.322-1.404-0.031-2.147c0.334-0.85,0.914-1.382,1.741-1.598c0.826-0.216,1.794-0.104,2.907,0.335l1.595,0.633
			l0.179-0.453c0.273-0.698,0.324-1.286,0.15-1.764c-0.173-0.478-0.628-0.864-1.372-1.157
			C128.015,10.863,127.082,10.783,126.159,10.993z M129.563,15.708l-1.528-0.606c-0.74-0.293-1.353-0.368-1.835-0.224
			c-0.486,0.145-0.814,0.437-0.99,0.878c-0.171,0.442-0.169,0.857,0.016,1.245c0.18,0.388,0.551,0.692,1.105,0.913
			c0.625,0.247,1.191,0.268,1.702,0.059c0.509-0.208,0.871-0.584,1.085-1.132L129.563,15.708z"/>
		<path fill="#073748" d="M140.18,15.519l-0.639,1.251c-0.349-0.574-0.968-1.089-1.852-1.546c-0.441-0.229-0.847-0.305-1.212-0.234
			c-0.363,0.072-0.628,0.269-0.794,0.591c-0.102,0.2-0.15,0.395-0.15,0.584c0,0.19,0.076,0.417,0.229,0.678
			c0.154,0.262,0.271,0.443,0.35,0.549c0.08,0.104,0.259,0.325,0.533,0.664c0.56,0.653,0.947,1.269,1.158,1.838
			c0.21,0.574,0.158,1.171-0.16,1.793c-0.369,0.724-0.914,1.167-1.634,1.33c-0.719,0.162-1.515,0.019-2.39-0.432
			c-1.017-0.525-1.753-1.122-2.208-1.792l0.654-1.284c0.516,0.827,1.199,1.46,2.05,1.899c0.509,0.261,0.949,0.361,1.315,0.299
			c0.369-0.064,0.641-0.268,0.816-0.612c0.205-0.4,0.217-0.787,0.037-1.162c-0.179-0.373-0.542-0.876-1.085-1.506
			c-0.508-0.571-0.857-1.137-1.05-1.701c-0.197-0.564-0.135-1.156,0.184-1.779c0.357-0.702,0.906-1.125,1.644-1.271
			c0.74-0.146,1.501-0.017,2.286,0.389C139.136,14.515,139.776,15,140.18,15.519z"/>
		<path fill="#073748" d="M148.093,21.55l-3.178,4.56c-0.578,0.83-0.48,1.517,0.295,2.062c0.396,0.279,0.83,0.409,1.3,0.389
			l-0.802,1.151c-0.464-0.053-0.906-0.226-1.323-0.52c-1.528-1.076-1.747-2.396-0.656-3.964l3.158-4.528l-1.238-0.871l0.683-0.983
			l1.238,0.871l1.349-1.934l1.208,0.851l-1.347,1.933l2.137,1.506l-0.685,0.982L148.093,21.55z"/>
		<path fill="#073748" d="M154.186,24.671l-1.05,1.292c1.125-0.593,2.159-0.501,3.102,0.274c0.176,0.143,0.3,0.263,0.382,0.362
			l-0.923,1.131c-0.146-0.234-0.326-0.438-0.537-0.612c-0.511-0.419-1.126-0.53-1.851-0.334c-0.722,0.198-1.337,0.605-1.841,1.224
			l-3.271,4.02l-1.142-0.938l6.004-7.343L154.186,24.671z"/>
		<path fill="#073748" d="M156.92,29.599l1.031-1.059c0.81,0.185,1.63,0.684,2.458,1.496c1.698,1.669,1.706,3.369,0.02,5.103
			l-4.185,4.305l-1.042-1.022l0.783-0.805c-0.912,0.241-1.825-0.09-2.741-0.989c-0.632-0.62-0.96-1.307-0.982-2.064
			c-0.021-0.754,0.246-1.418,0.803-1.991c0.634-0.652,1.374-0.917,2.219-0.794c0.845,0.123,1.696,0.603,2.549,1.441l1.228,1.205
			l0.34-0.35c0.523-0.535,0.794-1.056,0.82-1.565c0.025-0.509-0.246-1.042-0.816-1.601C158.683,30.202,157.855,29.766,156.92,29.599
			z M158.24,35.271l-1.175-1.153c-0.568-0.559-1.105-0.866-1.606-0.922c-0.504-0.056-0.919,0.085-1.248,0.425
			c-0.332,0.341-0.488,0.724-0.47,1.152c0.02,0.428,0.242,0.853,0.669,1.271c0.478,0.472,0.994,0.711,1.544,0.719
			c0.548,0.006,1.029-0.2,1.437-0.62L158.24,35.271z"/>
		<path fill="#073748" d="M172.054,37.712l0.931,1.149l-10.23,8.365l-0.929-1.149l1.083-0.887c-1.224,0.132-2.237-0.298-3.037-1.286
			c-0.795-0.98-1.054-2.044-0.783-3.191c0.273-1.15,0.927-2.146,1.96-2.99c1.146-0.938,2.315-1.403,3.502-1.39
			c1.189,0.011,2.159,0.482,2.913,1.413c0.777,0.958,0.97,2.042,0.583,3.244L172.054,37.712z M160.996,43.154
			c0.486,0.6,1.123,0.93,1.907,0.989c0.787,0.06,1.665-0.31,2.639-1.105c0.925-0.758,1.429-1.532,1.511-2.322
			c0.08-0.792-0.09-1.45-0.515-1.974c-0.492-0.61-1.148-0.917-1.96-0.922c-0.814-0.003-1.673,0.366-2.579,1.107
			c-0.792,0.647-1.277,1.364-1.454,2.154C160.366,41.872,160.518,42.562,160.996,43.154z"/>
		<path fill="#073748" d="M164.16,49.356l7.826-5.342l0.828,1.226l-7.824,5.341L164.16,49.356z M173.901,42.762
			c0.049-0.25,0.184-0.454,0.412-0.609c0.225-0.154,0.467-0.209,0.723-0.165c0.255,0.045,0.46,0.18,0.613,0.408
			c0.154,0.228,0.207,0.471,0.158,0.732c-0.051,0.261-0.188,0.468-0.414,0.622c-0.229,0.154-0.466,0.206-0.72,0.152
			c-0.254-0.053-0.458-0.194-0.613-0.421C173.907,43.254,173.854,43.014,173.901,42.762z"/>
		<path fill="#073748" d="M174.564,50.304l-4.776,2.823c-0.867,0.513-1.062,1.179-0.582,1.998c0.246,0.421,0.588,0.719,1.023,0.896
			l-1.206,0.712c-0.402-0.242-0.732-0.583-0.99-1.025c-0.947-1.616-0.599-2.908,1.041-3.878l4.743-2.804l-0.767-1.309l1.031-0.608
			l0.765,1.309l2.026-1.198l0.748,1.276l-2.026,1.198l1.325,2.261l-1.028,0.609L174.564,50.304z"/>
		<path fill="#073748" d="M169.729,58.677l8.446-4.275l0.664,1.322l-8.448,4.275L169.729,58.677z M180.237,53.41
			c0.082-0.243,0.242-0.426,0.488-0.549c0.244-0.124,0.49-0.147,0.738-0.069c0.248,0.077,0.434,0.238,0.556,0.485
			c0.123,0.244,0.143,0.493,0.061,0.746c-0.084,0.251-0.246,0.438-0.49,0.562c-0.244,0.124-0.49,0.143-0.736,0.058
			c-0.244-0.086-0.43-0.252-0.551-0.498C180.181,53.898,180.159,53.654,180.237,53.41z"/>
		<path fill="#073748" d="M172.823,65.905c-0.503-1.265-0.476-2.436,0.078-3.514s1.479-1.876,2.774-2.396
			c1.304-0.524,2.545-0.582,3.72-0.172c1.173,0.41,2.003,1.224,2.489,2.444c0.529,1.333,0.511,2.536-0.055,3.604
			c-0.566,1.068-1.507,1.867-2.825,2.395c-1.304,0.526-2.532,0.588-3.682,0.189C174.172,68.055,173.341,67.205,172.823,65.905z
			 M180.67,62.753c-0.332-0.836-0.917-1.361-1.751-1.577c-0.839-0.217-1.724-0.137-2.659,0.24c-0.914,0.365-1.593,0.921-2.04,1.667
			c-0.447,0.744-0.51,1.522-0.186,2.335c0.351,0.882,0.937,1.435,1.753,1.657c0.82,0.223,1.696,0.147,2.633-0.229
			c0.968-0.39,1.679-0.938,2.129-1.644C181,64.498,181.04,63.682,180.67,62.753z"/>
		<path fill="#073748" d="M184.678,70.72l-1.587,0.422c1.287,0.237,2.114,1.051,2.481,2.44c0.236,0.894,0.156,1.679-0.244,2.355
			c-0.4,0.676-1.05,1.134-1.952,1.377l-6.292,1.681l-0.38-1.43l5.913-1.583c0.673-0.18,1.142-0.489,1.405-0.928
			c0.264-0.44,0.32-0.937,0.174-1.492c-0.182-0.688-0.605-1.212-1.265-1.573c-0.662-0.359-1.462-0.414-2.401-0.163l-4.993,1.337
			l-0.373-1.414l9.14-2.445L184.678,70.72z"/>
		<path fill="#073748" d="M187.096,81.303l-1.626,0.234c1.25,0.387,1.978,1.292,2.179,2.715c0.133,0.915-0.039,1.684-0.516,2.31
			c-0.476,0.625-1.177,1.003-2.1,1.137l-6.444,0.931l-0.21-1.464l6.057-0.877c0.689-0.1,1.19-0.352,1.501-0.755
			c0.314-0.406,0.429-0.894,0.347-1.462c-0.1-0.705-0.458-1.275-1.073-1.71c-0.615-0.436-1.404-0.583-2.364-0.444l-5.112,0.74
			l-0.208-1.447l9.362-1.355L187.096,81.303z"/>
		<path fill="#073748" d="M180.829,97.791l-1.378,0.041c-0.406-0.727-0.626-1.621-0.656-2.682c-0.041-1.437,0.365-2.608,1.216-3.513
			c0.851-0.907,1.997-1.381,3.439-1.421c1.505-0.043,2.701,0.316,3.595,1.077c0.892,0.762,1.359,1.761,1.392,2.998
			c0.035,1.186-0.318,2.141-1.056,2.862c-0.74,0.722-1.806,1.103-3.195,1.143c-0.4,0.012-0.767-0.009-1.105-0.062l-0.184-6.483
			c-0.931,0.14-1.636,0.516-2.116,1.13c-0.48,0.614-0.705,1.409-0.677,2.383C180.134,96.324,180.377,97.167,180.829,97.791z
			 M184.272,96.811l0.375-0.01c0.783-0.023,1.402-0.253,1.856-0.692c0.453-0.438,0.669-1.032,0.648-1.781
			c-0.021-0.713-0.292-1.311-0.816-1.795c-0.525-0.486-1.261-0.759-2.208-0.818L184.272,96.811z"/>
		<path fill="#073748" d="M178.828,100.505L192,101.186l-0.076,1.48l-13.172-0.681L178.828,100.505z"/>
	</g>
	<g>
		<path fill="none" stroke="#C69506" stroke-width="0.7778" stroke-miterlimit="10" d="M129.602,40.558
			c0.477,0.274,0.949,0.494,1.414,0.637"/>
		<polyline fill="none" stroke="#C69506" stroke-miterlimit="10" points="62.784,44.867 62.929,36.5 66,36.5 		"/>
		<path fill="none" stroke="#C69506" stroke-width="0.7778" stroke-miterlimit="10" d="M122.682,33.509
			c2.032,2.816,4.417,5.589,6.867,7.02"/>
		
			<line fill="none" stroke="#C69506" stroke-width="0.7778" stroke-miterlimit="10" x1="137.58" y1="46.38" x2="133.231" y2="40.783"/>
		
			<line fill="none" stroke="#C69506" stroke-width="0.7778" stroke-miterlimit="10" x1="132.903" y1="45.475" x2="133.231" y2="40.783"/>
		
			<line fill="none" stroke="#C69506" stroke-width="0.7778" stroke-miterlimit="10" x1="127.689" y1="45.804" x2="132.903" y2="45.475"/>
		
			<line fill="none" stroke="#C69506" stroke-width="0.7778" stroke-miterlimit="10" x1="118.706" y1="40.214" x2="118.706" y2="40.214"/>
		<polyline fill="none" stroke="#C69506" stroke-miterlimit="10" points="67.5,39 67.5,36.748 65.351,36.361 		"/>
		<polyline fill="none" stroke="#C69506" stroke-width="0.7778" stroke-miterlimit="10" points="105.05,59.64 106.079,41.605 
			103.043,40.453 		"/>
		<path fill="none" stroke="#C69506" stroke-width="0.7778" stroke-miterlimit="10" d="M129.602,40.558
			c-0.018-0.01-0.033-0.019-0.053-0.029"/>
		<polyline fill="none" stroke="#C69506" stroke-width="0.7778" stroke-miterlimit="10" points="67.687,39.136 70.559,36.171 
			111.737,33.866 		"/>
		
			<line fill="none" stroke="#C69506" stroke-width="0.7778" stroke-miterlimit="10" x1="145.794" y1="63.122" x2="145.794" y2="63.122"/>
		<polyline fill="none" stroke="#C69506" stroke-width="0.7778" stroke-miterlimit="10" points="118.706,40.214 118.706,40.214 
			118.706,40.214 		"/>
		
			<line fill="none" stroke="#C69506" stroke-width="0.7778" stroke-miterlimit="10" x1="103.043" y1="40.453" x2="118.706" y2="40.214"/>
		<polyline fill="none" stroke="#C69506" stroke-width="0.7778" stroke-miterlimit="10" points="131.016,41.194 130.114,42.018 
			119.204,40.206 118.706,40.214 		"/>
		<polyline fill="none" stroke="#C69506" stroke-width="0.7778" stroke-miterlimit="10" points="145.794,63.122 128.638,59.636 
			127.078,57.661 127.904,41.651 118.706,40.214 		"/>
		<path fill="none" stroke="#C69506" stroke-miterlimit="10" d="M62.553,44.138c0,0-1.915,1.657-9.214,8.983
			c-7.3,7.328-11.838,7.42-11.838,7.42V60.5H47"/>
		<path fill="none" stroke="#C69506" stroke-width="0.7778" stroke-miterlimit="10" d="M116.816,77.998"/>
		
			<line fill="none" stroke="#C69506" stroke-width="0.7778" stroke-miterlimit="10" x1="145.794" y1="63.122" x2="145.373" y2="89.83"/>
		<path fill="none" stroke="#C69506" stroke-width="0.7778" stroke-miterlimit="10" d="M116.799,77.998"/>
		
			<line fill="none" stroke="#C69506" stroke-width="0.7778" stroke-miterlimit="10" x1="105.05" y1="59.64" x2="104.046" y2="88.591"/>
		<path fill="none" stroke="#C69506" stroke-width="0.7778" stroke-miterlimit="10" d="M116.799,77.998"/>
		
			<line fill="none" stroke="#C69506" stroke-width="0.7778" stroke-miterlimit="10" x1="46.769" y1="61.528" x2="45.73" y2="75.993"/>
		
			<line fill="none" stroke="#C69506" stroke-width="0.7778" stroke-miterlimit="10" x1="116.699" y1="78.038" x2="116.699" y2="78.038"/>
		<polyline fill="none" stroke="#C69506" stroke-width="0.7778" stroke-miterlimit="10" points="116.799,77.998 116.816,77.998 
			116.816,77.998 		"/>
		
			<line fill="none" stroke="#C69506" stroke-width="0.7778" stroke-miterlimit="10" x1="118.706" y1="40.214" x2="116.699" y2="84.619"/>
		
			<line fill="none" stroke="#C69506" stroke-width="0.7778" stroke-miterlimit="10" x1="105.05" y1="59.64" x2="105.153" y2="59.636"/>
		
			<line fill="none" stroke="#C69506" stroke-width="0.7778" stroke-miterlimit="10" x1="105.05" y1="59.64" x2="46.769" y2="61.528"/>
		<path fill="none" stroke="#C69506" stroke-width="0.7778" stroke-miterlimit="10" d="M119.12,39.136
			c-0.984,1.236-1.23-11.773-1.23-11.773"/>
		
			<line fill="none" stroke="#C69506" stroke-width="0.7778" stroke-miterlimit="10" x1="131.016" y1="41.194" x2="133.231" y2="40.783"/>
		<path fill="none" stroke="#C69506" stroke-miterlimit="10" d="M111.737,34.141c0,0,2.932-3.641,5.497-6.641h1.231
			c0,0,1.677,3,4.057,6h0.072l1.86-0.052l5.095,7.143"/>
		<polyline fill="none" stroke="#C69506" stroke-width="0.7778" stroke-miterlimit="10" points="129.549,40.529 129.557,40.537 
			129.602,40.558 		"/>
		
			<line fill="none" stroke="#C69506" stroke-width="0.7778" stroke-miterlimit="10" x1="131.016" y1="41.194" x2="129.602" y2="40.558"/>
		
			<line fill="none" stroke="#C69506" stroke-width="0.7778" stroke-miterlimit="10" x1="122.682" y1="33.509" x2="122.682" y2="33.509"/>
		<polygon fill="none" stroke="#C69506" stroke-miterlimit="10" points="114.447,42.5 110.182,42.5 109.688,51.5 113.871,51.5 		"/>
		<polygon fill="none" stroke="#C69506" stroke-miterlimit="10" points="108.702,70.5 112.887,70.5 113.461,60.5 109.196,60.5 		"/>
		<polygon fill="none" stroke="#C69506" stroke-width="0.7778" stroke-miterlimit="10" points="124.863,43.088 121.501,42.512 
			121.007,51.814 124.455,52.555 		"/>
		<polygon fill="none" stroke="#C69506" stroke-width="0.7778" stroke-miterlimit="10" points="120.127,70.833 123.57,71.573 
			123.982,62.106 120.619,61.528 		"/>
		<path fill="none" stroke="#C69506" stroke-width="0.7778" stroke-miterlimit="10" d="M103.043,40.453
			c6.973-3.458,8.694-6.587,8.694-6.587"/>
		<polyline fill="none" stroke="#C69506" stroke-miterlimit="10" points="88.552,47.868 91.066,53.5 86.911,53.5 88.276,47.348 
			91.942,48.39 		"/>
		<polyline fill="none" stroke="#C69506" stroke-miterlimit="10" points="95.661,48.005 98.229,53.5 93.853,53.5 95.388,47.485 
			99.049,48.253 		"/>
		
			<line fill="none" stroke="#C69506" stroke-width="0.7778" stroke-miterlimit="10" x1="67.687" y1="39.136" x2="65.307" y2="41.635"/>
		
			<line fill="none" stroke="#C69506" stroke-width="0.7778" stroke-miterlimit="10" x1="62.438" y1="44.653" x2="65.307" y2="41.635"/>
		<line fill="none" stroke="#C69506" stroke-miterlimit="10" x1="65.5" y1="37" x2="65.5" y2="41"/>
		<path fill="none" stroke="#C69506" stroke-miterlimit="10" d="M132.903,45.475l4.677,1.316l0.012,0.709h-0.667l0.065,0.099
			l-1.489-0.477v1.154c2,4.363,13.795,15.56,13.795,15.56l-3.503-0.562"/>
		<polygon fill="none" stroke="#C69506" stroke-miterlimit="10" points="130.5,46.38 130.5,54.696 130.974,55.684 133.5,56.013 
			133.5,47.533 		"/>
	</g>
</g>
</svg>
