<?xml version="1.0" encoding="utf-8"?>
<!-- Generator: Adobe Illustrator 16.0.4, SVG Export Plug-In . SVG Version: 6.00 Build 0)  -->
<!DOCTYPE svg PUBLIC "-//W3C//DTD SVG 1.1//EN" "http://www.w3.org/Graphics/SVG/1.1/DTD/svg11.dtd">
<svg version="1.1" id="Calque_1" xmlns="http://www.w3.org/2000/svg" xmlns:xlink="http://www.w3.org/1999/xlink" x="0px" y="0px"
	 width="504.001px" height="448px" viewBox="28 186 504.001 448" enable-background="new 28 186 504.001 448" xml:space="preserve">
<path d="M518,270H336v-70c0-7.733-6.267-14-14-14s-14,6.267-14,14v70H136.091l-24.808-74.43c-1.91-5.718-7.258-9.57-13.283-9.57H42
	c-7.733,0-14,6.267-14,14s6.267,14,14,14h45.909l24.708,74.116c0.067,0.212,0.134,0.414,0.207,0.622l55.894,167.686l22.91,68.729
	C169.758,532.785,154,553.562,154,578c0,30.878,25.122,56,56,56s56-25.122,56-56c0-10.203-2.789-19.751-7.577-28h141.154
	c-4.788,8.249-7.577,17.797-7.577,28c0,30.878,25.121,56,56,56c30.878,0,56-25.122,56-56c0-30.879-25.122-56-56-56H220.091
	l-18.665-56H462c6.025,0,11.374-3.853,13.283-9.57l56-168c1.422-4.267,0.705-8.966-1.921-12.611
	C526.725,272.162,522.502,270,518,270z M238,578c0,15.439-12.561,28-28,28c-15.439,0-28-12.561-28-28s12.561-28,28-28
	C225.439,550,238,562.561,238,578z M476,578c0,15.439-12.561,28-28,28s-28-12.561-28-28s12.561-28,28-28S476,562.561,476,578z
	 M451.909,438H192.091l-46.665-140H308v64.198l-32.099-32.099c-5.466-5.471-14.336-5.471-19.796,0
	c-5.471,5.466-5.471,14.331,0,19.796l56,56c2.728,2.739,6.312,4.105,9.896,4.105s7.168-1.366,9.9-4.099l56-56
	c5.472-5.466,5.472-14.331,0-19.796c-5.465-5.471-14.336-5.471-19.796,0L336,362.198V298h162.573L451.909,438z"/>
</svg>
