<?xml version="1.0" encoding="utf-8"?>
<!-- Generator: Adobe Illustrator 16.0.4, SVG Export Plug-In . SVG Version: 6.00 Build 0)  -->
<!DOCTYPE svg PUBLIC "-//W3C//DTD SVG 1.1//EN" "http://www.w3.org/Graphics/SVG/1.1/DTD/svg11.dtd">
<svg version="1.1" id="Calque_1" xmlns="http://www.w3.org/2000/svg" xmlns:xlink="http://www.w3.org/1999/xlink" x="0px" y="0px"
	 width="209px" height="50px" viewBox="0 0 209 50" enable-background="new 0 0 209 50" xml:space="preserve">
<g>
	<g>
		<g>
			<path fill-rule="evenodd" clip-rule="evenodd" fill="#231F20" d="M85.119,21.281c1.121,1.047,2.117,2.613,0.982,4.009
				c-0.633,0.778-2.166,1.488-3.576,1.701c-1.436,0.222-2.984-0.217-4.07-0.566c-0.273-0.088-0.559-0.109-0.715-0.189
				c-0.723-0.358-1.727-1.475-1.789-2.304c-0.076-0.955,0.748-1.945,1.477-2.429c0.836-0.556,2.303-0.996,3.531-1.071
				C82.722,20.323,83.914,20.911,85.119,21.281z"/>
			<path fill-rule="evenodd" clip-rule="evenodd" fill="#231F20" d="M136.328,20.905c0.121,1.384,0.125,3.021,0.045,4.447
				c-1.156,0.026-2.314-0.227-3.221,0.063c-0.953,0.304-0.982,1.172-1.029,2.144c1.098,0.131,2.559,0.004,3.711,0.097
				c0.1,1.54,0.049,3.25-0.043,4.763c-1.033,0.143-2.441,0.023-3.623,0.061c-0.238,3.681,0.029,7.721-0.135,11.455
				c-3.359,0.068-7.135,0.012-10.42,0.029c-0.363-3.714-0.02-7.754-0.225-11.545c-0.596-0.106-1.574,0.059-2.102-0.096
				c-0.023-1.498-0.154-3.252,0-4.667c0.629-0.114,1.463-0.084,2.236-0.097c0.199-1.754,0.006-3.273,0.939-4.353
				c1.506-1.745,3.658-2.619,7.469-2.744C132.228,20.386,134.376,20.582,136.328,20.905z"/>
			<path fill-rule="evenodd" clip-rule="evenodd" fill="#231F20" d="M204.888,22.418c-0.197,0.414-0.738,0.669-1.119,0.978
				c-1.137,0.929-2.258,1.929-3.531,2.807c-2.535-0.02-5.188,0.043-7.648-0.031c0.262-0.719,0.893-1.303,1.342-1.923
				c0.455-0.631,0.812-1.286,1.387-1.864C198.41,22.368,201.996,22.275,204.888,22.418z"/>
			<path fill-rule="evenodd" clip-rule="evenodd" fill="#231F20" d="M177.564,22.481c0.131,1.588-0.047,3.397,0.088,4.985
				c1.439,0.186,3.449-0.076,5.055,0.031c0.309,1.38,0.539,2.984,0.58,4.448c-1.689,0.145-3.754,0.023-5.59,0.064
				c-0.16,1.216-0.09,2.946-0.09,4.383c0,1.053-0.023,1.756,0.76,2.211c0.998,0.547,2.57,0.014,3.713,0.029
				c0.107,1.46,0.135,3.144,0.045,4.638c-0.295,0.196-0.732,0.265-1.119,0.347c-2.508,0.539-6.824,1.043-9.883,0.318
				c-1.188-0.284-1.912-0.853-2.641-1.578c-0.566-0.568-1.254-1.127-1.385-1.864c-0.117-0.67,0-1.415,0-2.142
				c0-2.054-0.062-4.199-0.09-6.31c-0.854-0.09-2.021,0.038-2.818-0.096c-0.074-1.376-0.074-2.974,0-4.354
				c0.838-0.092,1.982,0.03,2.818-0.061c0.135-1.591-0.043-3.397,0.09-4.986C170.521,22.499,174.144,22.424,177.564,22.481z"/>
			<path fill-rule="evenodd" clip-rule="evenodd" fill="#231F20" d="M91.736,22.891c3.293,0.127,6.977-0.02,10.242,0.127
				c0.289,1.468,0.244,3.171,0.402,4.732c1.355,0.182,3.08-0.075,4.518,0.062c0.178,1.368,0.092,3.091,0.045,4.511
				c-1.541,0.07-3.268,0.007-4.785,0.096c-0.051,1.31,0.09,2.968,0.09,4.448c0,0.762-0.088,1.552,0.492,1.862
				c0.953,0.504,2.795,0.181,3.848,0c0.068,1.486,0.086,3.005,0.088,4.542c-1.307,0.28-2.867,0.67-4.652,0.759
				c-1.795,0.084-3.863,0.143-5.545-0.065c-1.107-0.135-2.184-0.576-2.863-0.978c-0.857-0.504-1.662-1.381-1.879-2.303
				c-0.137-0.587-0.109-1.314-0.135-2.02c-0.066-2.001-0.027-4.246-0.131-6.245c-0.68-0.113-1.918,0.043-2.73-0.064
				c-0.391-1.449-0.787-3.06-0.982-4.542c1.158-0.07,2.541-0.027,3.713,0c0.236-1.474-0.029-3.3,0.131-4.826
				C91.628,22.94,91.673,22.908,91.736,22.891z"/>
			<path fill-rule="evenodd" clip-rule="evenodd" fill="#231F20" d="M68.257,22.987c0.172,1.529,0.094,3.234,0.135,4.857
				c1.32,0.216,3.236,0.008,4.695,0.128c0.494,1.458,0.838,3.193,1.117,4.7c-1.836,0.102-3.844,0.084-5.725,0.157
				c-0.012,1.209-0.133,2.899-0.043,4.293c0.029,0.496-0.033,1.119,0.133,1.417c0.492,0.88,2.895,0.477,4.16,0.443
				c0.145,1.421,0.271,3.025,0.223,4.479c-1.67,0.215-3.4,0.792-5.279,0.884c-2.553,0.124-5.025-0.106-6.795-0.728
				c-1.469-0.515-2.898-1.541-3.041-3.028c-0.229-2.368-0.037-5.359-0.225-7.95c-0.766-0.062-1.865,0.068-2.684-0.03
				c-0.135-1.487-0.039-3.019,0.045-4.608c0.76-0.077,1.604,0.045,2.461,0c0.127-1.601-0.053-3.42,0.133-4.983
				C61.029,22.956,64.865,22.993,68.257,22.987z"/>
			<path fill-rule="evenodd" clip-rule="evenodd" fill="#231F20" d="M208.914,36.49c-5.039,0.073-10.271,0.01-15.385,0.03
				c-0.008,0.946-0.152,2.04,0.357,2.65c0.617,0.741,2.814,1.014,4.07,0.6c1.035-0.339,1.166-1.005,1.566-1.609
				c2.953-0.055,6.246-0.049,9.033,0.031c-0.393,1.078-0.586,2.286-1.477,3.123c-0.496,0.467-1.43,0.904-2.191,1.296
				c-1.215,0.624-2.578,1.096-4.113,1.354c-3.174,0.536-6.73,0.412-9.66-0.284c-1.234-0.292-2.467-0.827-3.49-1.419
				c-1.064-0.617-2.062-1.217-2.682-1.956c-0.209-0.247-0.322-0.562-0.539-0.851c-1.49-1.996-1.654-6.116-0.178-8.362
				c1.223-1.856,4.459-3.453,7.559-4.036c3.01-0.564,6.883-0.398,9.705,0.284c0.312,0.074,0.646,0.186,0.984,0.282
				c0.326,0.096,0.715,0.151,0.984,0.253c0.352,0.135,0.689,0.412,1.072,0.6c1.641,0.813,3.07,1.98,3.668,3.534
				c0.248,0.647,0.391,1.417,0.537,2.178C208.876,34.922,209.134,35.708,208.914,36.49z M199.253,31.851
				c-0.74-0.931-3.342-1.445-4.785-0.759c-0.873,0.417-0.959,1.219-0.939,2.18c1.873,0.047,3.994,0,5.904-0.031
				C199.5,32.706,199.544,32.219,199.253,31.851z"/>
			<path fill-rule="evenodd" clip-rule="evenodd" fill="#231F20" d="M54.572,37.719c-4.928,0.069-10.16-0.09-15.072-0.031
				c-0.383,1.582,0.543,2.958,2.549,2.87c0.488-0.02,1.143-0.282,1.52-0.472c0.672-0.339,1.031-0.886,1.477-1.231
				c2.998-0.031,6.23-0.066,9.168-0.029c-0.643,2.572-2.84,4.191-5.812,5.205c-1.441,0.489-3.525,0.786-5.637,0.725
				c-2.729-0.081-5.428-0.194-7.422-0.819c-1.508-0.473-2.65-1.286-3.803-2.146c-1.057-0.788-2.061-1.901-2.416-3.091
				c-0.146-0.494-0.082-1.022-0.178-1.546c-0.057-0.311-0.246-0.62-0.27-0.947c-0.078-1.165,0.412-2.336,0.895-3.344
				c0.342-0.709,0.861-1.36,1.432-1.956c0.428-0.447,0.721-0.737,1.342-1.074c0.557-0.298,1.061-0.551,1.654-0.882
				c0.279-0.153,0.518-0.369,0.762-0.473c1.758-0.743,4.496-0.888,7.066-1.103c2.057-0.175,4.537,0.182,6.037,0.66
				c0.453,0.147,1.02,0.384,1.475,0.6c0.928,0.437,1.955,1.104,2.775,1.799c1.393,1.187,2.133,2.394,2.592,4.229
				C54.976,35.737,55.091,36.878,54.572,37.719z M44.597,32.672c-0.219-0.353-0.574-0.831-0.982-0.978
				c-0.637-0.229-1.793-0.153-2.371,0.031c-0.98,0.31-1.35,1.237-1.299,2.238c1.492,0.083,3.365,0.006,5.055,0.034
				C45.052,33.542,44.849,33.072,44.597,32.672z"/>
			<path fill-rule="evenodd" clip-rule="evenodd" fill="#231F20" d="M162.937,27.623c0.074,5.31,0.074,10.844,0,16.151
				c-3.297,0.086-7.182,0.043-10.555-0.029c-0.102-0.663-0.018-1.46-0.045-2.176c-0.322,0.159-0.486,0.438-0.76,0.661
				c-0.76,0.624-1.631,1.362-2.863,1.706c-1.912,0.527-5.504,0.592-7.422,0.029c-0.637-0.186-1.037-0.549-1.611-0.849
				c-1.01-0.531-2.092-0.902-2.238-2.021c-0.062-0.516,0.047-1.1,0.047-1.672c0-3.673-0.053-8.154,0.09-11.767
				c3.346-0.059,6.959-0.032,10.24,0.062c0.094,2.526,0.225,5.692,0.225,8.517c0,0.921-0.137,2.169,0.357,2.618
				c0.83,0.751,3.246,0.41,3.578-0.442c0.203-3.483-0.037-7.28,0.18-10.755C155.56,27.552,159.521,27.56,162.937,27.623z"/>
			<path fill-rule="evenodd" clip-rule="evenodd" fill="#231F20" d="M12.13,43.177c-0.061,2.241,0.115,4.645-0.092,6.782
				c-3.324,0.055-6.963,0.055-10.287,0c-0.039-7.407-0.135-14.582-0.043-21.926c3.201-0.079,6.57-0.007,9.66,0.094
				c0.131,0.572-0.043,1.356,0.09,1.927c0.488-0.386,0.838-0.923,1.432-1.294c0.096-0.061,0.322-0.098,0.49-0.19
				c0.197-0.108,0.26-0.231,0.492-0.315c0.307-0.108,0.699-0.147,1.074-0.253c0.543-0.151,0.873-0.339,1.609-0.378
				c2.59-0.133,4.854,0.102,6.307,0.756c1.398,0.633,2.484,1.476,3.354,2.556c0.432,0.536,0.971,0.945,1.209,1.453
				c0.221,0.47,0.268,1.078,0.402,1.641c0.381,1.588,0.443,3.581-0.135,5.173c-0.777,2.133-2.867,4.201-5.635,5.112
				c-1.555,0.51-3.367,0.902-5.68,0.661c-1.121-0.116-2.408-0.562-3.133-1.009C12.892,43.745,12.658,43.412,12.13,43.177z
				 M12.353,33.773c-0.09,0.631-0.053,1.65-0.045,2.652c0.008,0.925-0.037,1.884,0.178,2.586c0.164,0.53,1.004,1.34,1.611,1.45
				c0.615,0.116,1.336-0.133,1.654-0.312c1.117-0.637,1.477-1.958,1.477-3.63c0-1.398-0.057-3.327-1.029-3.976
				c-0.389-0.259-1.555-0.404-2.057-0.345C13.16,32.309,12.455,33.05,12.353,33.773z"/>
			<path fill-rule="evenodd" clip-rule="evenodd" fill="#231F20" d="M86.101,27.844c0.199,5.115,0.17,10.75,0.092,15.901
				c-3.408,0.057-7.092,0.036-10.42-0.065c-0.055-5.188-0.158-10.51-0.047-15.708C78.97,27.75,82.806,27.858,86.101,27.844z"/>
		</g>
	</g>
	<g>
		<g>
			<path fill-rule="evenodd" clip-rule="evenodd" fill="#B32024" d="M83.447,19.646c1.123,1.045,2.119,2.611,0.984,4.007
				c-0.633,0.778-2.166,1.486-3.578,1.703c-1.434,0.22-2.984-0.219-4.068-0.568c-0.275-0.088-0.559-0.108-0.717-0.188
				c-0.723-0.359-1.725-1.474-1.787-2.303c-0.076-0.955,0.746-1.947,1.475-2.429c0.838-0.557,2.303-0.995,3.531-1.074
				C81.05,18.686,82.242,19.277,83.447,19.646z"/>
			<path fill-rule="evenodd" clip-rule="evenodd" fill="#B32024" d="M134.658,19.269c0.123,1.384,0.125,3.022,0.045,4.447
				c-1.154,0.027-2.314-0.227-3.221,0.065c-0.955,0.302-0.982,1.168-1.027,2.142c1.094,0.131,2.555,0.006,3.711,0.096
				c0.098,1.541,0.047,3.252-0.045,4.765c-1.035,0.141-2.441,0.021-3.623,0.061c-0.238,3.681,0.027,7.719-0.135,11.453
				c-3.357,0.068-7.135,0.014-10.422,0.029c-0.361-3.712-0.018-7.752-0.223-11.543c-0.596-0.106-1.574,0.059-2.1-0.096
				c-0.025-1.5-0.158-3.254,0-4.669c0.627-0.114,1.461-0.083,2.234-0.096c0.201-1.754,0.008-3.273,0.938-4.352
				c1.508-1.744,3.66-2.619,7.469-2.744C130.556,18.751,132.707,18.945,134.658,19.269z"/>
			<path fill-rule="evenodd" clip-rule="evenodd" fill="#B32024" d="M203.218,20.782c-0.197,0.413-0.738,0.668-1.119,0.979
				c-1.137,0.927-2.26,1.927-3.533,2.807c-2.533-0.021-5.188,0.042-7.648-0.033c0.264-0.719,0.893-1.301,1.344-1.923
				c0.455-0.631,0.812-1.284,1.387-1.862C196.74,20.73,200.326,20.639,203.218,20.782z"/>
			<path fill-rule="evenodd" clip-rule="evenodd" fill="#B32024" d="M175.892,20.844c0.133,1.59-0.045,3.397,0.09,4.987
				c1.439,0.184,3.447-0.079,5.055,0.029c0.309,1.382,0.537,2.983,0.58,4.45c-1.689,0.143-3.756,0.021-5.592,0.062
				c-0.16,1.215-0.088,2.946-0.088,4.385c0,1.053-0.025,1.754,0.76,2.209c0.996,0.547,2.57,0.012,3.713,0.03
				c0.105,1.462,0.135,3.144,0.045,4.638c-0.295,0.198-0.732,0.265-1.119,0.349c-2.508,0.539-6.822,1.041-9.883,0.316
				c-1.189-0.284-1.914-0.853-2.641-1.578c-0.568-0.568-1.256-1.125-1.385-1.862c-0.119-0.67,0-1.415,0-2.144
				c0-2.054-0.062-4.199-0.09-6.31c-0.855-0.09-2.021,0.038-2.816-0.094c-0.076-1.378-0.076-2.976,0-4.355
				c0.836-0.092,1.979,0.029,2.816-0.061c0.135-1.59-0.045-3.397,0.09-4.986C168.851,20.864,172.472,20.788,175.892,20.844z"/>
			<path fill-rule="evenodd" clip-rule="evenodd" fill="#B32024" d="M90.068,21.256c3.291,0.127,6.973-0.021,10.24,0.127
				c0.289,1.466,0.244,3.169,0.402,4.73c1.354,0.184,3.078-0.075,4.518,0.062c0.176,1.37,0.092,3.091,0.045,4.512
				c-1.539,0.071-3.268,0.008-4.785,0.096c-0.053,1.308,0.09,2.968,0.088,4.448c0,0.76-0.088,1.552,0.494,1.859
				c0.953,0.504,2.795,0.181,3.846,0c0.07,1.486,0.088,3.007,0.088,4.542c-1.307,0.28-2.867,0.672-4.65,0.758
				c-1.797,0.086-3.863,0.143-5.547-0.064c-1.105-0.135-2.182-0.576-2.861-0.976c-0.857-0.504-1.662-1.384-1.877-2.305
				c-0.139-0.584-0.111-1.313-0.137-2.017c-0.066-2.003-0.029-4.248-0.133-6.245c-0.68-0.114-1.916,0.041-2.729-0.064
				c-0.391-1.449-0.787-3.062-0.982-4.544c1.158-0.07,2.541-0.027,3.711,0c0.238-1.472-0.029-3.301,0.133-4.825
				C89.958,21.305,90.003,21.273,90.068,21.256z"/>
			<path fill-rule="evenodd" clip-rule="evenodd" fill="#B32024" d="M66.587,21.351c0.17,1.528,0.094,3.234,0.133,4.858
				c1.324,0.214,3.238,0.009,4.697,0.125c0.494,1.458,0.838,3.193,1.117,4.701c-1.836,0.102-3.846,0.084-5.725,0.158
				c-0.01,1.208-0.135,2.895-0.045,4.292c0.033,0.495-0.031,1.12,0.135,1.418c0.492,0.878,2.895,0.475,4.16,0.441
				c0.145,1.421,0.27,3.025,0.225,4.479c-1.672,0.218-3.402,0.794-5.279,0.884c-2.555,0.124-5.027-0.104-6.797-0.726
				c-1.469-0.515-2.898-1.544-3.043-3.028c-0.229-2.367-0.037-5.36-0.223-7.952c-0.764-0.059-1.865,0.068-2.684-0.03
				c-0.135-1.487-0.041-3.019,0.045-4.608c0.758-0.075,1.604,0.045,2.459,0c0.129-1.602-0.051-3.42,0.133-4.981
				C59.357,21.319,63.195,21.358,66.587,21.351z"/>
			<path fill-rule="evenodd" clip-rule="evenodd" fill="#B32024" d="M207.242,34.854c-5.037,0.073-10.27,0.01-15.383,0.031
				c-0.006,0.945-0.152,2.039,0.357,2.65c0.617,0.739,2.812,1.011,4.07,0.6c1.033-0.343,1.166-1.007,1.564-1.609
				c2.953-0.054,6.25-0.049,9.035,0.03c-0.393,1.08-0.586,2.287-1.477,3.125c-0.496,0.466-1.43,0.904-2.191,1.293
				c-1.215,0.623-2.578,1.096-4.115,1.354c-3.172,0.535-6.729,0.414-9.66-0.282c-1.234-0.294-2.467-0.827-3.488-1.419
				c-1.064-0.619-2.062-1.219-2.682-1.956c-0.211-0.251-0.322-0.564-0.539-0.853c-1.49-1.996-1.654-6.114-0.18-8.362
				c1.223-1.858,4.461-3.454,7.559-4.036c3.012-0.564,6.887-0.396,9.707,0.284c0.311,0.076,0.645,0.186,0.982,0.284
				c0.328,0.094,0.717,0.149,0.984,0.253c0.354,0.133,0.693,0.41,1.074,0.6c1.641,0.812,3.07,1.98,3.666,3.532
				c0.25,0.647,0.393,1.419,0.537,2.178C207.207,33.285,207.464,34.071,207.242,34.854z M197.583,30.214
				c-0.742-0.932-3.344-1.443-4.787-0.759c-0.871,0.417-0.959,1.221-0.938,2.18c1.875,0.049,3.994,0,5.904-0.032
				C197.83,31.068,197.875,30.583,197.583,30.214z"/>
			<path fill-rule="evenodd" clip-rule="evenodd" fill="#B32024" d="M52.902,36.083c-4.93,0.071-10.158-0.09-15.07-0.031
				c-0.385,1.583,0.539,2.958,2.547,2.87c0.488-0.02,1.145-0.282,1.521-0.473c0.668-0.337,1.031-0.884,1.475-1.231
				c2.996-0.031,6.23-0.064,9.17-0.029c-0.646,2.572-2.844,4.193-5.816,5.204c-1.441,0.488-3.525,0.785-5.633,0.726
				c-2.732-0.079-5.432-0.194-7.426-0.819c-1.506-0.473-2.65-1.286-3.799-2.146c-1.061-0.789-2.062-1.902-2.418-3.092
				c-0.146-0.496-0.082-1.023-0.18-1.546c-0.055-0.31-0.244-0.618-0.266-0.947c-0.08-1.165,0.412-2.338,0.893-3.342
				c0.342-0.709,0.861-1.362,1.432-1.958c0.428-0.447,0.721-0.737,1.344-1.072c0.555-0.3,1.059-0.553,1.654-0.884
				c0.277-0.153,0.514-0.369,0.76-0.471c1.758-0.745,4.496-0.888,7.064-1.105c2.057-0.174,4.539,0.182,6.039,0.663
				c0.453,0.145,1.02,0.384,1.475,0.598c0.928,0.437,1.955,1.104,2.773,1.799c1.395,1.186,2.135,2.396,2.594,4.229
				C53.306,34.101,53.421,35.244,52.902,36.083z M42.929,31.036c-0.221-0.354-0.578-0.83-0.986-0.979
				c-0.635-0.229-1.791-0.153-2.371,0.031c-0.98,0.312-1.346,1.237-1.297,2.238c1.49,0.084,3.365,0.006,5.057,0.034
				C43.382,31.906,43.179,31.437,42.929,31.036z"/>
			<path fill-rule="evenodd" clip-rule="evenodd" fill="#B32024" d="M161.269,25.988c0.07,5.31,0.07,10.841,0,16.151
				c-3.299,0.084-7.184,0.043-10.557-0.031c-0.102-0.663-0.016-1.46-0.043-2.176c-0.326,0.159-0.488,0.438-0.762,0.663
				c-0.76,0.624-1.633,1.361-2.863,1.704c-1.912,0.528-5.504,0.592-7.422,0.029c-0.637-0.184-1.037-0.549-1.611-0.849
				c-1.008-0.531-2.094-0.9-2.236-2.021c-0.066-0.513,0.045-1.098,0.045-1.672c-0.002-3.673-0.053-8.154,0.09-11.767
				c3.346-0.059,6.959-0.029,10.24,0.063c0.094,2.526,0.225,5.694,0.225,8.517c0,0.921-0.137,2.17,0.357,2.619
				c0.828,0.751,3.244,0.412,3.576-0.441c0.205-3.484-0.035-7.28,0.182-10.757C153.89,25.915,157.851,25.923,161.269,25.988z"/>
			<path fill-rule="evenodd" clip-rule="evenodd" fill="#B32024" d="M10.458,41.54c-0.059,2.241,0.117,4.648-0.09,6.784
				c-3.324,0.053-6.963,0.053-10.285,0C0.042,40.917-0.053,33.74,0.039,26.397c3.201-0.078,6.57-0.01,9.658,0.094
				c0.131,0.57-0.039,1.354,0.09,1.925c0.49-0.386,0.84-0.921,1.432-1.294c0.1-0.061,0.324-0.098,0.492-0.19
				c0.197-0.106,0.26-0.229,0.49-0.315c0.309-0.108,0.699-0.146,1.074-0.253c0.545-0.149,0.877-0.337,1.611-0.376
				c2.59-0.133,4.854,0.1,6.307,0.756c1.396,0.631,2.484,1.474,3.354,2.556c0.434,0.533,0.969,0.945,1.209,1.452
				c0.221,0.471,0.266,1.079,0.4,1.64c0.381,1.59,0.445,3.581-0.135,5.173c-0.775,2.135-2.863,4.201-5.635,5.112
				c-1.553,0.51-3.363,0.904-5.68,0.663c-1.119-0.118-2.406-0.562-3.131-1.011C11.22,42.108,10.988,41.775,10.458,41.54z
				 M10.683,32.139c-0.09,0.629-0.053,1.648-0.045,2.65c0.006,0.928-0.039,1.884,0.178,2.588c0.162,0.529,1.002,1.34,1.611,1.45
				c0.615,0.114,1.336-0.135,1.654-0.313c1.117-0.635,1.477-1.958,1.477-3.628c0-1.397-0.059-3.328-1.029-3.975
				c-0.387-0.26-1.557-0.406-2.059-0.347C11.49,30.672,10.785,31.416,10.683,32.139z"/>
			<path fill-rule="evenodd" clip-rule="evenodd" fill="#B32024" d="M84.431,26.209c0.199,5.111,0.17,10.75,0.092,15.899
				c-3.408,0.057-7.09,0.038-10.422-0.062c-0.055-5.19-0.154-10.512-0.045-15.711C77.298,26.113,81.136,26.221,84.431,26.209z"/>
		</g>
	</g>
	<linearGradient id="SVGID_1_" gradientUnits="userSpaceOnUse" x1="67.4282" y1="13.5449" x2="67.4282" y2="0">
		<stop  offset="0.0485" style="stop-color:#EC1C24"/>
		<stop  offset="0.141" style="stop-color:#ED2423"/>
		<stop  offset="0.2848" style="stop-color:#EF3A1F"/>
		<stop  offset="0.4618" style="stop-color:#F25E19"/>
		<stop  offset="0.6651" style="stop-color:#F69010"/>
		<stop  offset="0.8878" style="stop-color:#FCCE06"/>
		<stop  offset="1" style="stop-color:#FFF100"/>
	</linearGradient>
	<path fill-rule="evenodd" clip-rule="evenodd" fill="url(#SVGID_1_)" d="M72.441,11.504c0.055-0.511-0.416-0.801-0.611-1.301
		c-0.275-0.698,0.004-1.559-0.25-2.354c-0.109-0.346-0.363-0.628-0.557-0.906c-0.416-0.605-0.754-1.062-1.281-1.645
		c-0.162-0.184-0.686-0.614-0.611-0.784c0.098-0.223,0.711-0.106,0.973-0.074c0.449,0.05,0.742,0.089,1.029,0.123
		c0.141-0.349-0.113-0.687-0.221-1.008c-0.115-0.341-0.186-0.696-0.305-1.027c-0.24-0.657-0.521-1.317-0.613-1.987
		c0.582-0.014,1.25,0.054,1.475,0.392c0.199,0.3,0.186,1.168,0.193,1.596c0.006,0.294-0.027,0.629-0.027,0.98
		c0,0.356-0.08,0.8,0.027,1.079c0.076,0.193,0.484,0.364,0.723,0.539c0.26,0.194,0.506,0.378,0.697,0.539
		c0.461,0.39,0.979,0.806,1.195,1.252c0.299,0.609,0.279,1.417,0.279,2.132c0,0.743-0.107,1.414-0.334,2.061
		c0.652,0.078,1.58,0.044,2.115,0.295c0.217,0.102,0.506,0.282,0.668,0.414c0.447,0.38,0.791,1.023,0.08,1.376
		c-0.289,0.145-0.951,0.231-1.475,0.294c-1.533,0.186-2.812-0.11-3.529-0.761c-0.596,0.098-1.141,0.135-1.699,0.1
		c-0.67-0.045-1.254-0.298-1.809-0.342c-0.623-0.056-1.129-0.036-1.611-0.199c-0.484-0.165-0.816-0.402-1.254-0.688
		c-0.4-0.261-0.93-0.492-1.307-0.758c-0.166-0.118-0.307-0.402-0.5-0.443c-0.18-0.035-0.371,0.071-0.527,0.075
		c-0.307,0.012-0.705,0.002-0.975-0.075c-0.805-0.225-1.549-1.166-1.865-1.862c-0.25-0.555-0.367-1.213-0.305-1.988
		c0.053-0.655,0.33-1.221,0.613-1.74c0.096-0.179,0.248-0.33,0.275-0.516c0.049-0.314-0.068-0.614-0.166-0.833
		c-0.104-0.243-0.35-0.507-0.529-0.786c-0.299-0.465-0.568-0.894-1.027-1.176c-0.166-0.104-0.41-0.168-0.613-0.271
		c-0.195-0.098-0.375-0.231-0.555-0.319c-0.363-0.175-0.822-0.375-0.865-0.808c0.209-0.157,0.898-0.102,1.254-0.023
		c0.557,0.117,1.082,0.47,1.613,0.733c0.258,0.127,0.516,0.267,0.779,0.392c0.285,0.141,0.545,0.341,0.777,0.394
		c0.201,0.043,0.518,0.021,0.67,0.072c0.346,0.12,0.914,0.769,1.166,1.055c0.367,0.414,0.682,0.847,0.973,1.227
		c0.283,0.363,0.727,0.711,1.141,1.08c0.391,0.343,0.818,0.708,1.254,0.955c0.535,0.304,1.064,0.525,1.391,0.882
		C68.673,7.19,68.9,7.6,69.216,7.972c0.604,0.717,1.104,1.356,1.555,2.256C71.123,10.926,71.367,11.774,72.441,11.504z"/>
	<path fill-rule="evenodd" clip-rule="evenodd" fill="#FFCC1D" d="M28.074,24.257c-0.18,0.341-0.654,0.421-0.975,0.639
		c-0.426,0.219-0.883,0.447-1.418,0.661c-0.154,0.061-0.27,0.167-0.418,0.221c-0.107,0.04-0.664,0.282-0.834,0.341
		c-0.508,0.184-3.781,1.035-4.09,1.08c-3.4,0.984-6.818-0.216-7.482-0.588c0,0-1.191-0.572-1.641-1.005
		c-0.402-0.525-0.947-0.992-1.334-1.594c-0.111-0.167-1.375-1.626-1.199-4.194c0.02-0.098,0.217-3.007,0.502-3.679
		c0.09-0.208,0.584-1.313,0.752-1.668c0.475-1.013,1.043-2.015,1.668-2.942c0.84-1.249,1.783-2.405,2.42-3.729
		c0.277-0.568,0.467-1.29,0.529-1.889c0.031-0.308-0.014-0.612-0.113-0.759c-0.105-0.16-0.361-0.363-0.525-0.467
		c-0.65-0.408-1.682-0.431-2.699-0.366c-0.156,0.01-0.309,0.088-0.5,0.122c-0.379,0.066-0.754,0.07-1.029,0.195
		C9.539,4.703,9.417,4.82,9.269,4.907C8.98,5.071,8.685,5.206,8.378,5.373C8.253,5.439,7.494,6.084,7.494,6.084
		s0.734-0.957,0.941-1.129C8.634,4.785,8.81,4.554,9.017,4.414c0.139-0.088,0.318-0.168,0.475-0.271
		c0.521-0.338,1.322-0.621,2.225-0.684c1.117-0.076,2.154,0.142,3.004,0.441c0.143,0.049,0.738,0.306,0.863,0.369
		c0.221,0.105,0.461,0.278,0.695,0.415c3.367,2.012,5.766,5.11,6.564,9.393c0.178,0.957,0.174,2.046,0.111,2.97
		c-0.043,0.661-0.203,1.408-0.334,2.059c-0.049,0.235-0.291,0.927,0.25,1.397c0.143,0.249,0.303,0.47,0.445,0.662
		c0.555,0.751,1.104,1.337,1.781,1.89c0.297,0.109,0.518,0.325,0.807,0.464C26.562,23.849,27.324,24,28.074,24.257z"/>
	<linearGradient id="SVGID_2_" gradientUnits="userSpaceOnUse" x1="21.98" y1="22.3447" x2="70.9146" y2="22.3447">
		<stop  offset="0" style="stop-color:#FFF100"/>
		<stop  offset="0.038" style="stop-color:#FCCA07"/>
		<stop  offset="0.0845" style="stop-color:#F8A10D"/>
		<stop  offset="0.1355" style="stop-color:#F57D14"/>
		<stop  offset="0.1904" style="stop-color:#F25F19"/>
		<stop  offset="0.2503" style="stop-color:#F0461D"/>
		<stop  offset="0.3174" style="stop-color:#EE3320"/>
		<stop  offset="0.3958" style="stop-color:#ED2622"/>
		<stop  offset="0.4957" style="stop-color:#EC1E24"/>
		<stop  offset="0.6909" style="stop-color:#EC1C24"/>
	</linearGradient>
	<path fill-rule="evenodd" clip-rule="evenodd" fill="url(#SVGID_2_)" d="M64.125,10.989c0.211,0.715-0.059,1.339-0.307,1.84
		c-0.656,1.325-1.641,2.186-2.947,3.015c-0.182,0.115-0.695,0.345-0.668,0.515c0.027,0.178,0.865,0.496,1.057,0.588
		c0.752,0.367,1.527,0.692,2.336,0.982c0.822,0.296,1.594,0.547,2.641,0.686c0.498,0.064,1.047,0.025,1.643,0.049
		c0.492,0.02,0.951,0.057,1.588,0.073c0.408,0.012,1.385-0.059,1.445,0.174c0.066,0.255-0.957,0.525-1.199,0.586
		c-0.717,0.183-1.881,0.361-2.584,0.419c-3.135,0.251-5.977-0.425-8.318-1.227c-0.352-0.122-0.674-0.284-1.002-0.441
		c-0.254-0.125-0.725-0.421-0.998-0.417c-0.143,0.002-0.459,0.192-0.67,0.294c-0.465,0.228-0.822,0.367-1.336,0.539
		c-0.242,0.083-0.457,0.206-0.666,0.271c-0.646,0.198-1.342,0.342-2.002,0.488c-1.336,0.302-2.652,0.676-4.008,0.984
		c-0.332,0.074-0.674,0.143-1,0.245c-0.336,0.1-0.684,0.12-1.002,0.219c-0.201,0.063-0.412,0.218-0.641,0.32
		c-1.086,0.478-2.203,0.984-3.365,1.425c-0.445,0.167-0.922,0.341-1.252,0.635c2.324,0.4,4.215,1.145,5.898,2.132
		c1.467,0.863,2.852,1.729,4.199,2.697c0.186,0.135,0.348,0.322,0.531,0.443c0.137,0.092,0.258,0.106,0.387,0.222
		c0.09,0.081,0.215,0.165,0.223,0.343c-0.154-0.036-0.297,0.064-0.389,0c-0.252-0.29-0.76-0.392-1.197-0.59
		c-0.605-0.271-1.232-0.561-1.836-0.882c-0.57-0.302-1.094-0.514-1.752-0.784c-0.145-0.061-0.299-0.106-0.445-0.172
		c-0.133-0.061-0.238-0.17-0.361-0.22c-0.215-0.086-0.428-0.088-0.641-0.17c-0.238-0.1-0.586-0.288-0.861-0.345
		c-0.158-0.035-0.338-0.01-0.5-0.049c-0.396-0.098-0.846-0.298-1.252-0.441c-0.408-0.143-0.805-0.243-1.447-0.32
		c-1.123-0.133-2.578-0.184-3.756-0.172c-0.398,0.005-0.918-0.106-1.252-0.074c-0.215,0.023-0.396,0.177-0.584,0.247
		c-0.348,0.131-0.666,0.208-0.973,0.369c-0.273,0.141-0.545,0.312-0.807,0.49c-1.025,0.698-2.018,1.412-3.033,2.135
		c-0.238,0.168-0.508,0.343-0.777,0.513c-0.273,0.171-0.506,0.421-0.752,0.541c-0.115,0.053-0.244,0.065-0.361,0.122
		c-0.414,0.198-0.869,0.61-1.254,0.882c-0.426,0.306-0.855,0.576-1.223,0.907c-0.115,0.308-0.26,0.588-0.693,0.614
		c-0.178,0.17-0.439,0.29-0.643,0.467c-0.438,0.386-1.131,0.797-1.725,1.08c-0.33,0.155-0.445,0.228-0.834,0.342
		c-0.244,0.074-0.551,0.358-0.779,0.099c0.006-0.364,0.293-0.478,0.559-0.615c0.131-0.275,0.389-0.439,0.723-0.538
		c0.814-0.761,1.5-1.638,2.086-2.601c0.045-0.247,0.047-0.531,0.445-0.467c0.977-1.974,2.193-3.809,3.42-5.59
		c1.145-1.662,2.568-3.136,4.342-4.218c1.77-1.082,3.742-2.021,5.926-2.818c2.844-1.046,5.996-1.943,9.289-2.627
		c0.424-0.088,0.852-0.192,1.279-0.271c0.426-0.076,0.854-0.159,1.252-0.292c0.018-0.2-0.26-0.284-0.416-0.37
		c-1.125-0.596-2.779-0.906-4.479-0.98c-0.549-0.023-1.152-0.008-1.695,0.049c-0.572,0.059-1.113,0.362-1.729,0.294
		c-0.27-0.031-1.08-0.482-1.082-0.786c-0.002-0.276,0.363-0.402,0.664-0.539c0.287-0.127,0.664-0.278,0.92-0.317
		c0.24-0.042,0.586-0.071,0.752-0.073c2.777-0.088,4.924,0.498,6.592,1.496c0.244,0.143,0.561,0.326,0.807,0.516
		c0.16,0.12,0.492,0.553,0.697,0.586c0.131,0.023,0.469-0.078,0.75-0.122c2.426-0.366,4.936-0.638,7.203-1.126
		C61.662,11.969,63.193,11.567,64.125,10.989z"/>
	<linearGradient id="SVGID_3_" gradientUnits="userSpaceOnUse" x1="18.4067" y1="26.0605" x2="18.4067" y2="6.771">
		<stop  offset="0" style="stop-color:#EC1C24"/>
		<stop  offset="0.7908" style="stop-color:#EE3832;stop-opacity:0.2092"/>
		<stop  offset="1" style="stop-color:#EE4036;stop-opacity:0"/>
	</linearGradient>
	<path fill-rule="evenodd" clip-rule="evenodd" fill="url(#SVGID_3_)" d="M26.414,24.564c0,0-3.939-0.17-5.793-6.949
		c0,0,2.789-2.104-2.287-10.843c-0.039-0.069-4.59,2.191-4.59,2.191S0.607,32.058,26.414,24.564z"/>
	<linearGradient id="SVGID_4_" gradientUnits="userSpaceOnUse" x1="16.8276" y1="26.9258" x2="16.8276" y2="5.0435">
		<stop  offset="0.7576" style="stop-color:#231F20"/>
		<stop  offset="0.7934" style="stop-color:#272324;stop-opacity:0.8523"/>
		<stop  offset="0.8262" style="stop-color:#312E2F;stop-opacity:0.7171"/>
		<stop  offset="0.8578" style="stop-color:#444041;stop-opacity:0.5866"/>
		<stop  offset="0.8887" style="stop-color:#5D5B5B;stop-opacity:0.4592"/>
		<stop  offset="0.9191" style="stop-color:#7F7C7D;stop-opacity:0.3338"/>
		<stop  offset="0.9491" style="stop-color:#A7A6A6;stop-opacity:0.2101"/>
		<stop  offset="0.9782" style="stop-color:#D7D6D6;stop-opacity:0.09"/>
		<stop  offset="1" style="stop-color:#FFFFFF;stop-opacity:0"/>
	</linearGradient>
	<path fill-rule="evenodd" clip-rule="evenodd" fill="url(#SVGID_4_)" d="M24.869,24.988c0,0-19.965,8.305-15.404-9.477
		c0.693-1.165,0.213-1.735,2.637-4.699c0-0.066,3.014-4.652,2.438-5.387l1.02-0.382c0,0,0.695,3.275-1.236,5.863
		C14.322,10.836,3.423,29.604,24.869,24.988z"/>
	<path fill-rule="evenodd" clip-rule="evenodd" fill="#231F20" d="M45.796,21.076c0,0-9.504,4.189-11.242,4.597
		c0,0.053-11.217,6.927-11.564,7.49c0,0,8.668-7.846,12.143-9.431C35.193,23.785,41.566,21.076,45.796,21.076z"/>
	<g>
		<path fill="#FFF100" d="M35.027,21.254c0,0,0.192-0.124,0.529-0.339c0.349-0.195,0.802-0.548,1.429-0.838
			c0.309-0.154,0.643-0.321,0.997-0.498c0.353-0.181,0.743-0.325,1.142-0.485c0.794-0.336,1.676-0.594,2.548-0.883
			c0.89-0.223,1.776-0.46,2.621-0.619c0.838-0.188,1.636-0.281,2.313-0.388c0.677-0.109,1.25-0.138,1.646-0.187
			c0.399-0.035,0.626-0.055,0.626-0.055s-0.894,0.201-2.23,0.487c-0.668,0.143-1.446,0.317-2.274,0.518
			c-0.834,0.176-1.706,0.432-2.581,0.669c-0.866,0.267-1.744,0.502-2.534,0.817c-0.394,0.157-0.794,0.267-1.15,0.422
			c-0.359,0.15-0.698,0.292-1.012,0.423c-0.634,0.249-1.137,0.53-1.501,0.693C35.234,21.158,35.027,21.254,35.027,21.254z"/>
	</g>
	<g>
		<path fill="#231F20" d="M55.466,17.322c0,0,0.458,0.091,1.127,0.277c0.332,0.101,0.727,0.198,1.132,0.353
			c0.408,0.15,0.842,0.311,1.277,0.471c0.43,0.158,0.86,0.315,1.263,0.463c0.204,0.064,0.391,0.168,0.582,0.211
			c0.189,0.055,0.367,0.106,0.532,0.154c0.658,0.199,1.101,0.368,1.101,0.368s-0.46-0.028-1.157-0.125
			c-0.345-0.059-0.763-0.088-1.172-0.242c-0.417-0.133-0.861-0.274-1.306-0.416c-0.425-0.178-0.851-0.356-1.25-0.523
			c-0.396-0.175-0.767-0.339-1.084-0.479C55.877,17.546,55.466,17.322,55.466,17.322z"/>
	</g>
	<g>
		<path fill="#FFF100" d="M59.64,15.985c0,0,0.221-0.063,0.521-0.203c0.148-0.07,0.313-0.155,0.485-0.271
			c0.18-0.097,0.347-0.242,0.522-0.372c0.342-0.274,0.667-0.574,0.905-0.809c0.243-0.232,0.405-0.388,0.405-0.388
			s-0.11,0.198-0.312,0.47c-0.196,0.278-0.515,0.603-0.861,0.899c-0.367,0.272-0.767,0.503-1.11,0.589
			c-0.162,0.067-0.306,0.046-0.403,0.068C59.696,15.979,59.64,15.985,59.64,15.985z"/>
	</g>
	<g>
		<path fill="#FFF100" d="M56.218,17.705c0,0-0.38,0.151-0.95,0.377c-0.568,0.225-1.338,0.501-2.121,0.745
			c-0.792,0.217-1.6,0.389-2.218,0.416c-0.306,0.042-0.566-0.004-0.744,0.001c-0.179-0.006-0.281-0.01-0.281-0.01
			s0.411-0.025,1.011-0.115c0.301-0.046,0.649-0.108,1.019-0.201c0.373-0.072,0.76-0.196,1.151-0.303
			c0.78-0.237,1.56-0.474,2.145-0.651C55.819,17.797,56.218,17.705,56.218,17.705z"/>
	</g>
	<g>
		<path fill="#231F20" d="M68.525,12.187c0,0-0.117,0.034-0.321,0.094c-0.101,0.036-0.229,0.047-0.385,0.052
			c-0.157,0.019-0.333,0.013-0.517-0.031c-0.376-0.058-0.796-0.225-1.196-0.477c-0.394-0.26-0.771-0.59-1.115-0.947
			c-0.324-0.375-0.624-0.767-0.872-1.154c-0.259-0.381-0.439-0.772-0.606-1.098c-0.311-0.665-0.433-1.14-0.433-1.14
			s0.26,0.407,0.65,1.018c0.406,0.594,0.94,1.39,1.586,2.075c0.312,0.352,0.653,0.675,1.005,0.93
			c0.356,0.242,0.702,0.465,1.038,0.552c0.167,0.057,0.318,0.096,0.458,0.108c0.139,0.026,0.266,0.042,0.374,0.027
			C68.403,12.19,68.525,12.187,68.525,12.187z"/>
	</g>
	<ellipse fill-rule="evenodd" clip-rule="evenodd" fill="#231F20" cx="74.872" cy="12.475" rx="2.622" ry="0.963"/>
</g>
</svg>
